<mxfile host="app.diagrams.net" modified="2024-01-21T14:45:33.132Z" agent="Mozilla/5.0 (Windows NT 10.0; Win64; x64) AppleWebKit/537.36 (KHTML, like Gecko) Chrome/120.0.0.0 Safari/537.36" etag="2XBIehkOhDl14k3Flp56" version="22.1.21" type="github">
  <diagram name="Seite-1" id="LFhBnV2CUkkyut7LVG_U">
    <mxGraphModel dx="995" dy="618" grid="1" gridSize="10" guides="1" tooltips="1" connect="1" arrows="1" fold="1" page="1" pageScale="1" pageWidth="827" pageHeight="1169" math="0" shadow="0">
      <root>
        <mxCell id="0" />
        <mxCell id="1" parent="0" />
        <mxCell id="A4KC4OkEU0xHgXNjWnPV-1" value="Modis 500/250 m NDVI" style="rounded=0;whiteSpace=wrap;html=1;" vertex="1" parent="1">
          <mxGeometry x="120" y="160" width="120" height="60" as="geometry" />
        </mxCell>
        <mxCell id="A4KC4OkEU0xHgXNjWnPV-10" value="Modis 500/250 m NDVI" style="rounded=0;whiteSpace=wrap;html=1;" vertex="1" parent="1">
          <mxGeometry x="130" y="170" width="120" height="60" as="geometry" />
        </mxCell>
        <mxCell id="A4KC4OkEU0xHgXNjWnPV-11" value="Modis 500/250 m NDVI" style="rounded=0;whiteSpace=wrap;html=1;" vertex="1" parent="1">
          <mxGeometry x="140" y="180" width="120" height="60" as="geometry" />
        </mxCell>
        <mxCell id="A4KC4OkEU0xHgXNjWnPV-12" value="Modis 500/250 m NDVI" style="rounded=0;whiteSpace=wrap;html=1;" vertex="1" parent="1">
          <mxGeometry x="150" y="190" width="120" height="60" as="geometry" />
        </mxCell>
        <mxCell id="A4KC4OkEU0xHgXNjWnPV-13" value="Modis 500/250 m NDVI: 16 Day Composites" style="rounded=0;whiteSpace=wrap;html=1;" vertex="1" parent="1">
          <mxGeometry x="160" y="200" width="120" height="60" as="geometry" />
        </mxCell>
        <mxCell id="A4KC4OkEU0xHgXNjWnPV-14" value="Modis 500/250 m NDVI" style="rounded=0;whiteSpace=wrap;html=1;" vertex="1" parent="1">
          <mxGeometry x="340" y="160" width="120" height="60" as="geometry" />
        </mxCell>
      </root>
    </mxGraphModel>
  </diagram>
</mxfile>
